#!OML:ASF H:\Terrain\Patient Classification 1\Takeo\Monday\TakeoMonday.ASF
:FULLY-SPECIFIED
:DEGREES
1075
root 8.70828 15.6438 -3.43116 29.2266 18.8192 -0.878462
lowerback 33.4301 3.21563 4.93058
upperback 22.8383 5.5399 2.99242
thorax 8.31748 3.25617 -0.613052
lowerneck -20.8161 -3.70126 -15.0524
upperneck 5.50617 -0.912372 0.357648
head 5.03606 -0.753888 2.36384
rclavicle -7.95139e-015 -3.02153e-014
rhumerus 60.7011 19.0485 -36.8095
rradius 40.3618
rwrist -3.76328
rhand -34.4097 37.621
rfingers 7.12502
rthumb -7.57498 7.77662
lclavicle -7.95139e-015 -3.02153e-014
lhumerus -7.77126 -3.20076 92.3007
lradius 73.8068
lwrist 40.8397
lhand -20.795 18.99
lfingers 7.12502
lthumb 5.57226 48.8967
rfemur -73.3095 -18.3556 39.6517
rtibia 65.8436
rfoot -24.6041 -13.9716
rtoes 2.72358
lfemur -76.9321 -10.4183 -6.6225
ltibia 61.8529
lfoot -11.2626 9.3902
ltoes -12.4907
1076
root 8.70565 15.5851 -3.43881 29.7545 19.3523 -0.76631
lowerback 33.3116 3.03302 5.42728
upperback 23.4233 5.43041 3.19279
thorax 9.07861 3.26813 -0.58374
lowerneck -21.635 -4.21437 -16.1032
upperneck 5.46734 -1.23165 1.07213
head 5.16819 -0.877122 2.70224
rclavicle 6.20208e-014 2.34566e-014
rhumerus 61.5856 17.8948 -35.8056
rradius 39.8237
rwrist -3.14611
rhand -34.0229 36.7217
rfingers 7.12502
rthumb -7.20165 6.86424
lclavicle 6.20208e-014 2.34566e-014
lhumerus -6.51538 -3.34304 92.6661
lradius 74.0305
lwrist 40.6812
lhand -20.5639 19.7056
lfingers 7.12502
lthumb 5.79543 49.6064
rfemur -74.5407 -18.5769 40.0122
rtibia 66.8316
rfoot -24.9319 -14.1212
rtoes 2.20729
lfemur -78.0798 -10.5274 -6.49661
ltibia 62.2895
lfoot -11.3029 9.01669
ltoes -11.0284
1077
root 8.70608 15.5164 -3.44286 30.5463 19.5573 -0.00699434
lowerback 33.2135 2.96811 5.30843
upperback 23.953 5.32667 3.2677
thorax 9.71836 3.22322 -0.378208
lowerneck -22.2045 -4.69838 -17.2102
upperneck 5.26861 -1.5308 1.77593
head 5.22206 -0.981235 3.06113
rclavicle -7.95139e-014 -3.10104e-014
rhumerus 62.3818 16.7952 -34.7313
rradius 39.2946
rwrist -3.09882
rhand -33.7603 36.4482
rfingers 7.12502
rthumb -6.94818 6.58225
lclavicle -7.95139e-014 -3.10104e-014
lhumerus -5.39952 -3.67549 93.0159
lradius 74.2683
lwrist 40.845
lhand -20.6317 19.2252
lfingers 7.12502
lthumb 5.72996 49.1277
rfemur -75.9129 -18.8399 39.6375
rtibia 67.8065
rfoot -25.3686 -14.0382
rtoes 3.3054
lfemur -79.1757 -10.998 -6.9009
ltibia 62.7384
lfoot -11.2099 9.13258
ltoes -11.4364
1078
root 8.70824 15.4613 -3.44378 31.2109 19.5604 0.777764
lowerback 33.2756 2.98378 5.06877
upperback 24.461 5.2998 3.36073
thorax 10.2673 3.19468 -0.115821
lowerneck -22.3332 -5.18621 -18.6083
upperneck 4.85474 -1.85312 2.61469
head 5.15114 -1.07886 3.50826
rclavicle 9.54166e-015 -1.98785e-014
rhumerus 63.0447 15.8055 -33.4397
rradius 38.7635
rwrist -3.14436
rhand -33.5073 36.5143
rfingers 7.12502
rthumb -6.70395 6.64046
lclavicle 9.54166e-015 -1.98785e-014
lhumerus -4.49635 -4.12526 93.455
lradius 74.4445
lwrist 41.1462
lhand -20.7211 18.0239
lfingers 7.12502
lthumb 5.64364 47.9287
rfemur -77.0389 -19.0421 39.0871
rtibia 68.7466
rfoot -25.9408 -13.8343
rtoes 5.33171
lfemur -80.0344 -11.514 -7.24224
ltibia 63.1411
lfoot -11.3161 9.26639
ltoes -10.5955
1079
root 8.71229 15.4235 -3.4437 31.7496 19.5118 1.53625
lowerback 33.3655 3.01133 4.82203
upperback 25.0553 5.28635 3.53023
thorax 10.9085 3.16295 0.235892
lowerneck -22.4966 -5.73083 -20.055
upperneck 4.35835 -2.19793 3.26711
head 5.06508 -1.1933 3.89647
rclavicle 2.22639e-014 -3.33958e-014
rhumerus 63.7388 14.6979 -31.7421
rradius 38.3787
rwrist -3.21393
rhand -33.5329 36.3749
rfingers 7.12502
rthumb -6.72866 6.50183
lclavicle 2.22639e-014 -3.33958e-014
lhumerus -3.46921 -4.44387 94.1176
lradius 74.6329
lwrist 41.1828
lhand -20.7808 17.323
lfingers 7.12502
lthumb 5.58601 47.2294
rfemur -78.0588 -19.3462 38.5693
rtibia 69.6806
rfoot -26.3233 -13.8377
rtoes 6.06973
lfemur -80.6527 -11.9098 -7.75194
ltibia 63.4768
lfoot -11.4908 9.22751
ltoes -9.97212
1080
root 8.71163 15.3688 -3.44529 32.3468 19.6159 2.18177
lowerback 33.2335 2.99905 4.72302
upperback 25.7291 5.24803 3.75722
thorax 11.7482 3.13137 0.59878
lowerneck -23.118 -6.35799 -21.1424
upperneck 4.10747 -2.57398 3.47319
head 5.12411 -1.35745 4.072
rclavicle 4.45278e-014 2.78299e-014
rhumerus 64.459 13.3654 -30.2281
rradius 37.9707
rwrist -3.00241
rhand -33.8231 36.6042
rfingers 7.12502
rthumb -7.00878 6.74021
lclavicle 4.45278e-014 2.78299e-014
lhumerus -2.25601 -4.79851 94.8037
lradius 74.8941
lwrist 41.136
lhand -21.0311 17.1498
lfingers 7.12502
lthumb 5.34427 47.0624
rfemur -79.2393 -19.6463 38.2797
rtibia 70.6243
rfoot -26.6582 -13.9243
rtoes 5.81468
lfemur -81.363 -12.2285 -8.28263
ltibia 63.7942
lfoot -11.3398 9.38237
ltoes -11.3757
1081
root 8.70524 15.2999 -3.44561 32.9419 19.9452 2.53194
lowerback 32.9792 2.93436 4.92782
upperback 26.3543 5.20449 3.99844
thorax 12.6194 3.13257 0.82871
lowerneck -23.8358 -6.9187 -21.9371
upperneck 3.92248 -2.89382 3.57037
head 5.20863 -1.49823 4.17115
rclavicle -2.54444e-014 -2.22639e-014
rhumerus 65.0036 12.0871 -29.36
rradius 37.5161
rwrist -2.6559
rhand -34.1872 37.1495
rfingers 7.12502
rthumb -7.3603 7.29751
lclavicle -2.54444e-014 -2.22639e-014
lhumerus -1.11533 -5.19616 95.2621
lradius 75.1965
lwrist 41.0846
lhand -20.7468 16.9069
lfingers 7.12502
lthumb 5.61884 46.8124
rfemur -80.3865 -19.8257 38.3817
rtibia 71.5241
rfoot -27.0636 -14.0111
rtoes 4.26143
lfemur -82.2037 -12.4828 -8.42714
ltibia 64.1046
lfoot -11.0162 9.60654
ltoes -13.252
1082
root 8.70081 15.2501 -3.44373 33.4479 20.3372 2.843
lowerback 32.957 2.8394 5.19318
upperback 26.7083 5.14787 4.28308
thorax 13.0727 3.12179 1.04491
lowerneck -23.7075 -7.34384 -23.2284
upperneck 3.56434 -3.17717 4.28431
head 5.13199 -1.57831 4.56457
rclavicle -5.08889e-014 9.14409e-014
rhumerus 65.1983 11.3337 -28.6379
rradius 37.1836
rwrist -2.97961
rhand -34.2576 37.342
rfingers 7.12502
rthumb -7.42824 7.49243
lclavicle -5.08889e-014 9.14409e-014
lhumerus -0.515932 -5.47237 95.759
lradius 75.5301
lwrist 41.0528
lhand -20.4113 17.1495
lfingers 7.12502
lthumb 5.94269 47.0461
rfemur -81.3275 -20.0945 38.5352
rtibia 72.3357
rfoot -27.4635 -14.0457
rtoes 2.79764
lfemur -82.9384 -12.7845 -8.47385
ltibia 64.3894
lfoot -10.7938 9.67434
ltoes -14.9636
1083
root 8.70282 15.2005 -3.44494 34.0418 20.5616 3.34914
lowerback 32.9472 2.78594 5.27641
upperback 26.9527 5.10174 4.57174
thorax 13.3644 3.08564 1.34784
lowerneck -23.2369 -7.79365 -24.8093
upperneck 3.29239 -3.52424 5.16263
head 5.05842 -1.69214 5.051
rclavicle 3.81667e-014 6.2816e-014
rhumerus 65.271 10.7967 -27.6855
rradius 36.9466
rwrist -3.43601
rhand -34.1443 36.9818
rfingers 7.12502
rthumb -7.31884 7.12841
lclavicle 3.81667e-014 6.2816e-014
lhumerus -0.251272 -5.81162 96.3466
lradius 75.9219
lwrist 41.1963
lhand -20.3863 18.0207
lfingers 7.12502
lthumb 5.96688 47.9167
rfemur -82.383 -20.3961 38.4532
rtibia 73.1518
rfoot -27.7832 -14.0854
rtoes 2.8254
lfemur -83.7385 -13.0965 -8.76619
ltibia 64.6739
lfoot -10.4704 9.70121
ltoes -17.3132
